<?xml version="1.0" encoding="utf-8"?>
<!-- Generator: Adobe Illustrator 26.0.1, SVG Export Plug-In . SVG Version: 6.00 Build 0)  -->
<svg version="1.1" id="Layer_1" xmlns="http://www.w3.org/2000/svg" xmlns:xlink="http://www.w3.org/1999/xlink" x="0px" y="0px"
	 viewBox="0 0 595.3 841.9" style="enable-background:new 0 0 595.3 841.9;" xml:space="preserve">
<style type="text/css">
	.st0{fill:none;}
	.st1{fill:#FFFFFF;}
</style>
<rect x="64.8" y="60.8" class="st0" width="373.9" height="38.7"/>
<rect x="549.4" y="465.4" class="st0" width="373.9" height="196.6"/>
<polygon class="st1" points="253.3,458.2 206.8,424.5 253.3,390.4 253.3,358.6 164.3,424.5 253.3,490 "/>
<polygon class="st1" points="293.4,458.2 335,424.5 293.4,390.4 293.4,358.6 373,424.5 293.4,490 "/>
<ellipse cx="288.7" cy="416.1" rx="186.3" ry="178.9"/>
<polygon class="st1" points="267.3,450 220.7,416.3 267.3,382.3 267.3,350.4 178.2,416.3 267.3,481.8 "/>
<polygon class="st1" points="307.4,450 349,416.3 307.4,382.3 307.4,350.4 387,416.3 307.4,481.8 "/>
</svg>
