<?xml version="1.0" encoding="utf-8"?>
<!-- Generator: Adobe Illustrator 26.0.1, SVG Export Plug-In . SVG Version: 6.00 Build 0)  -->
<svg version="1.1" id="Layer_1" xmlns="http://www.w3.org/2000/svg" xmlns:xlink="http://www.w3.org/1999/xlink" x="0px" y="0px"
	 viewBox="0 0 85 65" style="enable-background:new 0 0 85 65;" xml:space="preserve">
<style type="text/css">
	.st0{fill:#F6DF1A;}
	.st1{fill:none;}
	.st2{fill:#FFFFFF;}
	.st3{fill:#182A59;}
	.st4{clip-path:url(#SVGID_00000167355268299571189500000015010321543463606672_);}
</style>
<ellipse class="st0" cx="100.3" cy="151.5" rx="34.5" ry="22.7"/>
<rect x="82.9" y="71.4" class="st1" width="68.2" height="38"/>
<image style="overflow:visible;enable-background:new    ;" width="636" height="619" xlink:href="C:\Users\SHLOK\Downloads\Code.png"  transform="matrix(9.612397e-02 0 0 8.958058e-02 107.8166 96.0514)">
</image>
<polygon class="st2" points="40.9,40.6 35.2,36.4 40.9,32.2 40.9,28.2 30,36.4 40.9,44.6 "/>
<polygon class="st2" points="45.8,40.6 50.9,36.4 45.8,32.2 45.8,28.2 55.6,36.4 45.8,44.6 "/>
<ellipse class="st3" cx="45.2" cy="35.4" rx="22.8" ry="22.4"/>
<g>
	<g>
		<defs>
			<ellipse id="SVGID_1_" cx="45.3" cy="35.4" rx="20.9" ry="20"/>
		</defs>
		<clipPath id="SVGID_00000085938737723498914630000002072191115112759452_">
			<use xlink:href="#SVGID_1_"  style="overflow:visible;"/>
		</clipPath>
		<g style="clip-path:url(#SVGID_00000085938737723498914630000002072191115112759452_);">
			<g>
				<defs>
					<rect id="SVGID_00000027584781211656675910000016952592495524143005_" x="19.4" y="10.3" width="51.8" height="50.1"/>
				</defs>
				<clipPath id="SVGID_00000176010625851292109490000001926359836833993401_">
					<use xlink:href="#SVGID_00000027584781211656675910000016952592495524143005_"  style="overflow:visible;"/>
				</clipPath>
				<g style="clip-path:url(#SVGID_00000176010625851292109490000001926359836833993401_);">
					
						<image style="overflow:visible;" width="109" height="105" xlink:href="78E55BEC.jpg"  transform="matrix(0.48 0 0 0.48 19.2 10.28)">
					</image>
				</g>
			</g>
		</g>
	</g>
</g>
<polygon class="st2" points="42.6,39.6 36.9,35.4 42.6,31.2 42.6,27.2 31.7,35.4 42.6,43.6 "/>
<polygon class="st2" points="48.5,39.6 53.6,35.4 48.5,31.2 48.5,27.2 58.3,35.4 48.5,43.6 "/>
</svg>
