<?xml version="1.0" encoding="utf-8"?>
<!-- Generator: Adobe Illustrator 26.0.1, SVG Export Plug-In . SVG Version: 6.00 Build 0)  -->
<svg version="1.1" id="Layer_1" xmlns="http://www.w3.org/2000/svg" xmlns:xlink="http://www.w3.org/1999/xlink" x="0px" y="0px"
	 viewBox="0 0 85 65" style="enable-background:new 0 0 85 65;" xml:space="preserve">
<style type="text/css">
	.st0{fill:#FFFFFF;stroke:#3F5A9E;stroke-width:2;}
	.st1{fill:#3F5A9E;}
</style>
<path class="st0" d="M45,33.4c0,8.5-2.4,16.1-6.3,21.6c-3.9,5.5-9.1,8.8-14.8,8.8c-5.7,0-11-3.3-14.8-8.8
	c-3.9-5.5-6.3-13.1-6.3-21.6c0-8.5,2.4-16.1,6.3-21.6c3.9-5.5,9.1-8.8,14.8-8.8c5.7,0,11,3.3,14.8,8.8C42.5,17.2,45,24.9,45,33.4z"
	/>
<path class="st0" d="M82.7,31.9c0,8.5-2.4,16.1-6.3,21.6c-3.9,5.5-9.1,8.8-14.8,8.8c-5.7,0-11-3.3-14.8-8.8
	c-3.9-5.5-6.3-13.2-6.3-21.6c0-8.5,2.4-16.1,6.3-21.6c3.9-5.5,9.1-8.8,14.8-8.8c5.7,0,11,3.3,14.8,8.8
	C80.3,15.8,82.7,23.4,82.7,31.9z"/>
<ellipse class="st1" cx="27.3" cy="45.7" rx="8.6" ry="12.1"/>
<ellipse class="st1" cx="65" cy="45.7" rx="8.6" ry="12.1"/>
</svg>
