<?xml version="1.0" encoding="utf-8"?>
<!-- Generator: Adobe Illustrator 26.0.1, SVG Export Plug-In . SVG Version: 6.00 Build 0)  -->
<svg version="1.1" id="Layer_1" xmlns="http://www.w3.org/2000/svg" xmlns:xlink="http://www.w3.org/1999/xlink" x="0px" y="0px"
	 viewBox="0 0 24 24" style="enable-background:new 0 0 24 24;" xml:space="preserve">
<style type="text/css">
	.st0{fill:#F9F9F9;}
</style>
<path class="st0" d="M8,16.9c-0.1,0.2-0.1,0.3-0.1,0.5C8,17.9,8.4,18.3,9,18.3h1.3v4.8c0,0.5-0.4,0.9-0.9,0.9H6.6
	c-0.5,0-0.9-0.4-0.9-0.9v-4.8H1c-0.7,0-1.2-0.7-0.9-1.4l7-12.6C7.3,3.7,8,3.5,8.5,3.8C8.7,3.9,8.8,4,8.9,4.2l2.9,5.6L8,16.9z
	 M23.9,16.9l-7-12.6c-0.2-0.6-0.9-0.8-1.4-0.5c-0.2,0.1-0.3,0.2-0.4,0.4l-3,5.6l3.9,7c0.1,0.2,0.1,0.3,0.1,0.5
	c-0.1,0.5-0.5,0.9-1.1,0.9h-1.3V23c0,0.5,0.4,0.9,0.9,0.9h2.9c0.5,0,0.9-0.4,0.9-0.9v-4.8H23C23.7,18.2,24.2,17.5,23.9,16.9
	L23.9,16.9z"/>
</svg>
