<?xml version="1.0" encoding="utf-8"?>
<!-- Generator: Adobe Illustrator 26.0.1, SVG Export Plug-In . SVG Version: 6.00 Build 0)  -->
<svg version="1.1"
	 id="Layer_1" image-rendering="optimizeQuality" text-rendering="geometricPrecision" shape-rendering="geometricPrecision"
	 xmlns="http://www.w3.org/2000/svg" xmlns:xlink="http://www.w3.org/1999/xlink" x="0px" y="0px" viewBox="0 0 3333 3333"
	 style="enable-background:new 0 0 3333 3333;" xml:space="preserve">
<style type="text/css">
	.st0{fill-rule:evenodd;clip-rule:evenodd;fill:#0274B3;}
</style>
<path class="st0" d="M1667,0c920,0,1667,746,1667,1667c0,920-746,1667-1667,1667C747,3334,0,2588,0,1667C0,747,746,0,1667,0z
	 M1452,1336h342v175h5c48-86,164-175,338-175c361,0,428,225,428,517v596h-357v-528c0-126-3-288-186-288c-186,0-214,137-214,279v537
	h-357V1336H1452z M1205,1027c0,102-83,186-186,186c-102,0-186-83-186-186c0-102,83-186,186-186C1121,841,1205,924,1205,1027z
	 M834,1336h371v1113H834V1336z"/>
</svg>
